<svg xmlns="http://www.w3.org/2000/svg" xmlns:xlink="http://www.w3.org/1999/xlink" width="0" height="0" style="display:none;"><symbol viewBox="0 0 24 24" id="sun-line"><path d="M12 18C8.68629 18 6 15.3137 6 12C6 8.68629 8.68629 6 12 6C15.3137 6 18 8.68629 18 12C18 15.3137 15.3137 18 12 18ZM12 16C14.2091 16 16 14.2091 16 12C16 9.79086 14.2091 8 12 8C9.79086 8 8 9.79086 8 12C8 14.2091 9.79086 16 12 16ZM11 1H13V4H11V1ZM11 20H13V23H11V20ZM3.51472 4.92893L4.92893 3.51472L7.05025 5.63604L5.63604 7.05025L3.51472 4.92893ZM16.9497 18.364L18.364 16.9497L20.4853 19.0711L19.0711 20.4853L16.9497 18.364ZM19.0711 3.51472L20.4853 4.92893L18.364 7.05025L16.9497 5.63604L19.0711 3.51472ZM5.63604 16.9497L7.05025 18.364L4.92893 20.4853L3.51472 19.0711L5.63604 16.9497ZM23 11V13H20V11H23ZM4 11V13H1V11H4Z"></path></symbol><symbol viewBox="0 0 24 24" id="moon-line"><path d="M10 7C10 10.866 13.134 14 17 14C18.9584 14 20.729 13.1957 21.9995 11.8995C22 11.933 22 11.9665 22 12C22 17.5228 17.5228 22 12 22C6.47715 22 2 17.5228 2 12C2 6.47715 6.47715 2 12 2C12.0335 2 12.067 2 12.1005 2.00049C10.8043 3.27098 10 5.04157 10 7ZM4 12C4 16.4183 7.58172 20 12 20C15.0583 20 17.7158 18.2839 19.062 15.7621C18.3945 15.9187 17.7035 16 17 16C12.0294 16 8 11.9706 8 7C8 6.29648 8.08133 5.60547 8.2379 4.938C5.71611 6.28423 4 8.9417 4 12Z"></path></symbol><symbol viewBox="0 0 24 24" id="cloudy-line"><path d="M9.5 6C5.91015 6 3 8.91015 3 12.5C3 16.0899 5.91015 19 9.5 19H16.5C18.9853 19 21 16.9853 21 14.5C21 12.0147 18.9853 10 16.5 10C16.1717 10 15.8516 10.0352 15.5433 10.1019C14.589 7.69894 12.2429 6 9.5 6ZM16.5 21H9.5C4.80558 21 1 17.1944 1 12.5C1 7.80558 4.80558 4 9.5 4C12.5433 4 15.2131 5.59939 16.7146 8.00348C20.2051 8.11671 23 10.982 23 14.5C23 18.0899 20.0899 21 16.5 21Z"></path></symbol><symbol viewBox="0 0 24 24" id="sun-fill"><path d="M12 18C8.68629 18 6 15.3137 6 12C6 8.68629 8.68629 6 12 6C15.3137 6 18 8.68629 18 12C18 15.3137 15.3137 18 12 18ZM11 1H13V4H11V1ZM11 20H13V23H11V20ZM3.51472 4.92893L4.92893 3.51472L7.05025 5.63604L5.63604 7.05025L3.51472 4.92893ZM16.9497 18.364L18.364 16.9497L20.4853 19.0711L19.0711 20.4853L16.9497 18.364ZM19.0711 3.51472L20.4853 4.92893L18.364 7.05025L16.9497 5.63604L19.0711 3.51472ZM5.63604 16.9497L7.05025 18.364L4.92893 20.4853L3.51472 19.0711L5.63604 16.9497ZM23 11V13H20V11H23ZM4 11V13H1V11H4Z"></path></symbol><symbol viewBox="0 0 24 24" id="moon-fill"><path d="M11.3807 2.01904C9.91573 3.38786 9 5.33708 9 7.50018C9 11.6423 12.3579 15.0002 16.5 15.0002C18.6631 15.0002 20.6123 14.0844 21.9811 12.6195C21.6613 17.8539 17.3149 22.0002 12 22.0002C6.47715 22.0002 2 17.523 2 12.0002C2 6.68532 6.14629 2.33888 11.3807 2.01904Z"></path></symbol><symbol viewBox="0 0 24 24" id="cloudy-fill"><path d="M9 20.9855C4.53831 20.7267 1 17.0266 1 12.5C1 7.80558 4.80558 4 9.5 4C12.5433 4 15.2131 5.59939 16.7146 8.00348C20.2051 8.11671 23 10.982 23 14.5C23 17.9216 20.3562 20.7257 17 20.9811V21H9V20.9855Z"></path></symbol><symbol viewBox="0 0 24 24" id="haze-line"><path d="M6.08296 13C6.0284 12.6748 6 12.3407 6 12C6 8.68629 8.68629 6 12 6C15.3137 6 18 8.68629 18 12C18 12.3407 17.9716 12.6748 17.917 13H15.874C15.9562 12.6804 16 12.3453 16 12C16 9.79086 14.2091 8 12 8C9.79086 8 8 9.79086 8 12C8 12.3453 8.04375 12.6804 8.12602 13H6.08296ZM2 15H12V17H2V15ZM14 15H22V17H14V15ZM16 19H20V21H16V19ZM4 19H14V21H4V19ZM11 1H13V4H11V1ZM3.51472 4.92893L4.92893 3.51472L7.05025 5.63604L5.63604 7.05025L3.51472 4.92893ZM19.0711 3.51472L20.4853 4.92893L18.364 7.05025L16.9497 5.63604L19.0711 3.51472ZM23 11V13H20V11H23ZM4 11V13H1V11H4Z"></path></symbol><symbol viewBox="0 0 24 24" id="haze-fill"><path d="M6.08296 13C6.0284 12.6748 6 12.3407 6 12C6 8.68629 8.68629 6 12 6C15.3137 6 18 8.68629 18 12C18 12.3407 17.9716 12.6748 17.917 13H6.08296ZM2 15H12V17H2V15ZM14 15H22V17H14V15ZM16 19H20V21H16V19ZM4 19H14V21H4V19ZM11 1H13V4H11V1ZM3.51472 4.92893L4.92893 3.51472L7.05025 5.63604L5.63604 7.05025L3.51472 4.92893ZM19.0711 3.51472L20.4853 4.92893L18.364 7.05025L16.9497 5.63604L19.0711 3.51472ZM23 11V13H20V11H23ZM4 11V13H1V11H4Z"></path></symbol><symbol viewBox="0 0 24 24" id="temp-hot-line"><path d="M8 5C8 2.79086 9.79086 1 12 1C14.2091 1 16 2.79086 16 5V10.2547C17.8135 11.5196 19 13.6213 19 16C19 19.866 15.866 23 12 23C8.13401 23 5 19.866 5 16C5 13.6213 6.18652 11.5196 8 10.2547V5ZM9.1442 11.8951C7.80943 12.8261 7 14.3432 7 16C7 18.7614 9.23858 21 12 21C14.7614 21 17 18.7614 17 16C17 14.3432 16.1906 12.8261 14.8558 11.8951L14 11.2981V5C14 3.89543 13.1046 3 12 3C10.8954 3 10 3.89543 10 5V11.2981L9.1442 11.8951ZM11 12.126V5H13V12.126C14.7252 12.5701 16 14.1362 16 16C16 18.2091 14.2091 20 12 20C9.79086 20 8 18.2091 8 16C8 14.1362 9.27477 12.5701 11 12.126ZM12 18C13.1046 18 14 17.1046 14 16C14 14.8954 13.1046 14 12 14C10.8954 14 10 14.8954 10 16C10 17.1046 10.8954 18 12 18Z"></path></symbol><symbol viewBox="0 0 24 24" id="temp-cold-line"><path d="M8 5C8 2.79086 9.79086 1 12 1C14.2091 1 16 2.79086 16 5V10.2547C17.8135 11.5196 19 13.6213 19 16C19 19.866 15.866 23 12 23C8.13401 23 5 19.866 5 16C5 13.6213 6.18652 11.5196 8 10.2547V5ZM9.1442 11.8951C7.80943 12.8261 7 14.3432 7 16C7 18.7614 9.23858 21 12 21C14.7614 21 17 18.7614 17 16C17 14.3432 16.1906 12.8261 14.8558 11.8951L14 11.2981V5C14 3.89543 13.1046 3 12 3C10.8954 3 10 3.89543 10 5V11.2981L9.1442 11.8951ZM8 16H16C16 18.2091 14.2091 20 12 20C9.79086 20 8 18.2091 8 16Z"></path></symbol><symbol viewBox="0 0 24 24" id="celsius-line"><path d="M4.5 10C2.567 10 1 8.433 1 6.5C1 4.567 2.567 3 4.5 3C6.433 3 8 4.567 8 6.5C8 8.433 6.433 10 4.5 10ZM4.5 8C5.32843 8 6 7.32843 6 6.5C6 5.67157 5.32843 5 4.5 5C3.67157 5 3 5.67157 3 6.5C3 7.32843 3.67157 8 4.5 8ZM22 10H20C20 7.79086 18.2091 6 16 6C13.7909 6 12 7.79086 12 10V15C12 17.2091 13.7909 19 16 19C18.2091 19 20 17.2091 20 15H22C22 18.3137 19.3137 21 16 21C12.6863 21 10 18.3137 10 15V10C10 6.68629 12.6863 4 16 4C19.3137 4 22 6.68629 22 10Z"></path></symbol><symbol viewBox="0 0 24 24" id="fahrenheit-line"><path d="M12 12H19V14H12V21H10V8C10 5.79086 11.7909 4 14 4H21V6H14C12.8954 6 12 6.89543 12 8V12ZM4.5 10C2.567 10 1 8.433 1 6.5C1 4.567 2.567 3 4.5 3C6.433 3 8 4.567 8 6.5C8 8.433 6.433 10 4.5 10ZM4.5 8C5.32843 8 6 7.32843 6 6.5C6 5.67157 5.32843 5 4.5 5C3.67157 5 3 5.67157 3 6.5C3 7.32843 3.67157 8 4.5 8Z"></path></symbol><symbol viewBox="0 0 24 24" id="temp-hot-fill"><path d="M8 10.2547V5C8 2.79086 9.79086 1 12 1C14.2091 1 16 2.79086 16 5V10.2547C17.8135 11.5196 19 13.6213 19 16C19 19.866 15.866 23 12 23C8.13401 23 5 19.866 5 16C5 13.6213 6.18652 11.5196 8 10.2547ZM11 12.126C9.27477 12.5701 8 14.1362 8 16C8 18.2091 9.79086 20 12 20C14.2091 20 16 18.2091 16 16C16 14.1362 14.7252 12.5701 13 12.126V5H11V12.126Z"></path></symbol><symbol viewBox="0 0 24 24" id="temp-cold-fill"><path d="M8 10.2547V5C8 2.79086 9.79086 1 12 1C14.2091 1 16 2.79086 16 5V10.2547C17.8135 11.5196 19 13.6213 19 16C19 19.866 15.866 23 12 23C8.13401 23 5 19.866 5 16C5 13.6213 6.18652 11.5196 8 10.2547ZM8 16C8 18.2091 9.79086 20 12 20C14.2091 20 16 18.2091 16 16H8Z"></path></symbol></svg>